<?xml version="1.0" standalone="no"?><!DOCTYPE svg PUBLIC "-//W3C//DTD SVG 1.1//EN" "http://www.w3.org/Graphics/SVG/1.1/DTD/svg11.dtd"><svg class="icon" width="200px" height="200.00px" viewBox="0 0 1024 1024" version="1.1" xmlns="http://www.w3.org/2000/svg"><path fill="#333333" d="M36.523 439.979c-23.45 0-40.892-21.607-35.533-44.032C55.262 169.062 262.349 0 510.19 0c184.73 0 346.693 93.97 439.74 235.725V57.037c0-19.661 16.146-35.772 35.84-35.772h1.98c19.73 0 35.84 16.111 35.84 35.772v347.136c0 19.695-16.11 35.806-35.84 35.806h-1.945c-0.24 0-0.444-0.137-0.717-0.137-0.41 0-0.82 0.137-1.263 0.137-17.237 0-31.54-12.015-35.499-28.502C901.222 216.61 723.217 71.51 510.191 71.51c-213.026 0-391.066 145.101-438.101 339.968a36.66 36.66 0 0 1-35.533 28.502zM987.34 584.02c23.484 0 40.926 21.607 35.567 44.032C968.636 854.938 761.515 1024 513.707 1024c-184.73 0-346.693-93.97-439.74-235.725v178.688c0 19.695-16.145 35.772-35.874 35.772h-1.946A35.908 35.908 0 0 1 0.273 966.997V619.861c0-19.695 16.145-35.806 35.84-35.806h1.98c0.239 0 0.444 0.137 0.682 0.137 0.444 0 0.854-0.137 1.298-0.137 17.237 0 31.539 12.015 35.498 28.502 47.07 194.867 225.11 339.968 438.136 339.968 212.992 0 391.065-145.101 438.101-339.968a36.66 36.66 0 0 1 35.499-28.502z" /></svg>